<?xml version="1.0" standalone="no"?>
<!DOCTYPE svg PUBLIC "-//W3C//DTD SVG 20010904//EN"
 "http://www.w3.org/TR/2001/REC-SVG-20010904/DTD/svg10.dtd">
<svg version="1.0" xmlns="http://www.w3.org/2000/svg"
 width="2400.000000pt" height="2400.000000pt" viewBox="0 0 2400.000000 2400.000000"
 preserveAspectRatio="xMidYMid meet">

<g transform="translate(0.000000,2400.000000) scale(0.100000,-0.100000)"
fill="#000000" stroke="none">
<path d="M7570 21065 l0 -1395 1150 0 1150 0 0 450 0 450 -655 0 -655 0 0 455
0 455 655 0 655 0 0 490 0 490 -1150 0 -1150 0 0 -1395z"/>
<path d="M10860 21968 l0 -493 457 -452 458 -452 -457 0 -458 -1 0 -450 0
-450 1150 0 1150 0 0 453 1 452 -458 452 -458 452 458 1 457 0 0 490 0 490
-1150 0 -1150 0 0 -492z"/>
<path d="M14130 21968 l-1 -493 458 -452 458 -452 -457 -1 -458 0 0 -450 0
-450 1150 0 1150 0 0 453 0 454 -452 443 c-249 244 -454 447 -456 452 -2 4
201 8 452 8 l456 0 0 490 0 490 -1150 0 -1150 0 0 -492z"/>
<path d="M4535 18308 c2 -18 318 -3430 701 -7583 383 -4152 697 -7551 698
-7552 1 -1 1366 -369 3034 -818 l3033 -817 3031 816 c1668 449 3032 817 3034
819 1 1 315 3400 698 7552 383 4153 698 7565 701 7583 l6 32 -7471 0 -7471 0
6 -32z m13518 -1225 c-2 -16 -255 -2919 -563 -6453 -308 -3534 -564 -6436
-568 -6449 -7 -23 -140 -60 -2452 -682 -1345 -362 -2451 -659 -2457 -659 -10
0 -13 194 -13 938 l0 938 -207 61 c-1175 345 -3610 1067 -3616 1073 -4 4 -62
630 -127 1391 -65 761 -121 1403 -124 1427 l-6 42 949 0 949 0 5 -42 c4 -24
32 -356 63 -738 31 -382 58 -696 58 -697 3 -4 2025 -513 2040 -513 15 0 16
122 16 1489 l0 1489 -222 6 c-123 3 -1068 8 -2102 10 -1033 3 -1880 6 -1881 8
-5 5 -148 1788 -144 1792 2 1 981 410 2176 907 l2172 904 1 48 0 47 -2255 0
c-1796 0 -2257 3 -2260 13 -5 12 -225 1788 -225 1813 0 12 344 14 2370 14
l2370 0 0 925 0 925 3028 0 3029 0 -4 -27z"/>
</g>
</svg>
